<svg xmlns="http://www.w3.org/2000/svg" version="1.1" xmlns:xlink="http://www.w3.org/1999/xlink" xmlns:svgjs="http://svgjs.dev/svgjs" width="1000" height="179" viewBox="0 0 1000 179"><g transform="matrix(1,0,0,1,-0.6060362391036733,-0.5890574620199658)"><svg viewBox="0 0 396 71" data-background-color="#ffffff" preserveAspectRatio="xMidYMid meet" height="179" width="1000" xmlns="http://www.w3.org/2000/svg" xmlns:xlink="http://www.w3.org/1999/xlink"><g id="tight-bounds" transform="matrix(1,0,0,1,0.23999035068504782,0.23364849052188674)"><svg viewBox="0 0 395.52 70.53270301895624" height="70.53270301895624" width="395.52"><g><svg viewBox="0 0 395.52 70.53270301895624" height="70.53270301895624" width="395.52"><g><svg viewBox="0 0 395.52 70.53270301895624" height="70.53270301895624" width="395.52"><g id="textblocktransform"><svg viewBox="0 0 395.52 70.53270301895624" height="70.53270301895624" width="395.52" id="textblock"><g><svg viewBox="0 0 395.52 70.53270301895624" height="70.53270301895624" width="395.52"><g transform="matrix(1,0,0,1,0,0)"><svg width="395.52" viewBox="3.799999952316284 -37.45000076293945 213.62998962402344 38.10000228881836" height="70.53270301895624" data-palette-color="#7a26c1"><path d="M9 0.65Q6.6 0.65 5.2-0.8 3.8-2.25 3.8-4.85L3.8-4.85 3.8-36.95 8.3-37.45 8.3-5Q8.3-3.05 9.9-3.05L9.9-3.05Q10.55-3.05 11.35-3.35L11.35-3.35 12.35-0.2Q10.75 0.65 9 0.65L9 0.65ZM35.3-26.3L35.3 0 31.4 0 31.15-3.95Q28.4 0.65 23.8 0.65L23.8 0.65Q20.65 0.65 18.85-1.4 17.05-3.45 17.05-6.95L17.05-6.95 17.05-26.3 21.55-26.3 21.55-7.35Q21.55-5.05 22.42-3.98 23.3-2.9 25.05-2.9L25.05-2.9Q28.4-2.9 30.8-7.3L30.8-7.3 30.8-26.3 35.3-26.3ZM52.55-26.95Q54.65-26.95 56.4-26.25 58.15-25.55 59.75-24.1L59.75-24.1 57.75-21.4Q56.55-22.35 55.35-22.83 54.15-23.3 52.75-23.3L52.75-23.3Q49.8-23.3 48.17-20.8 46.55-18.3 46.55-13L46.55-13Q46.55-3.1 52.75-3.1L52.75-3.1Q54.15-3.1 55.3-3.58 56.45-4.05 57.75-5L57.75-5 59.85-2.25Q56.65 0.65 52.6 0.65L52.6 0.65Q47.55 0.65 44.67-2.85 41.8-6.35 41.8-12.95L41.8-12.95Q41.8-17.25 43.12-20.4 44.45-23.55 46.87-25.25 49.3-26.95 52.55-26.95L52.55-26.95ZM81.19-6Q81.19-4.4 81.64-3.63 82.09-2.85 83.04-2.45L83.04-2.45 82.09 0.6Q80.14 0.3 79.04-0.6 77.94-1.5 77.49-3.35L77.49-3.35Q74.94 0.65 70.34 0.65L70.34 0.65Q66.84 0.65 64.79-1.53 62.74-3.7 62.74-7.35L62.74-7.35Q62.74-11.55 65.49-13.75 68.24-15.95 73.34-15.95L73.34-15.95 76.74-15.95 76.74-18.2Q76.74-20.95 75.62-22.18 74.49-23.4 71.94-23.4L71.94-23.4Q69.19-23.4 65.54-22L65.54-22 64.44-25.15Q68.84-26.95 72.64-26.95L72.64-26.95Q81.19-26.95 81.19-18.4L81.19-18.4 81.19-6ZM71.39-2.75Q74.89-2.75 76.74-6.85L76.74-6.85 76.74-13.05 73.84-13.05Q67.34-13.05 67.34-7.6L67.34-7.6Q67.34-5.25 68.39-4 69.44-2.75 71.39-2.75L71.39-2.75ZM112.34-26.95Q116.49-26.95 118.76-23.43 121.04-19.9 121.04-13.2L121.04-13.2Q121.04-6.8 118.56-3.08 116.09 0.65 111.84 0.65L111.84 0.65Q109.84 0.65 108.19-0.28 106.54-1.2 105.34-2.9L105.34-2.9 105.04 0 101.04 0 101.04-36.9 105.54-37.4 105.54-23.1Q106.79-24.9 108.51-25.93 110.24-26.95 112.34-26.95L112.34-26.95ZM110.79-2.9Q116.34-2.9 116.34-13.2L116.34-13.2Q116.34-18.75 114.99-21.08 113.64-23.4 111.14-23.4L111.14-23.4Q109.39-23.4 108.06-22.35 106.74-21.3 105.54-19.4L105.54-19.4 105.54-6.35Q106.49-4.8 107.84-3.85 109.19-2.9 110.79-2.9L110.79-2.9ZM144.04-6Q144.04-4.4 144.49-3.63 144.94-2.85 145.89-2.45L145.89-2.45 144.94 0.6Q142.99 0.3 141.89-0.6 140.78-1.5 140.34-3.35L140.34-3.35Q137.78 0.65 133.19 0.65L133.19 0.65Q129.69 0.65 127.64-1.53 125.59-3.7 125.59-7.35L125.59-7.35Q125.59-11.55 128.34-13.75 131.09-15.95 136.19-15.95L136.19-15.95 139.59-15.95 139.59-18.2Q139.59-20.95 138.46-22.18 137.34-23.4 134.78-23.4L134.78-23.4Q132.03-23.4 128.39-22L128.39-22 127.29-25.15Q131.69-26.95 135.49-26.95L135.49-26.95Q144.04-26.95 144.04-18.4L144.04-18.4 144.04-6ZM134.24-2.75Q137.74-2.75 139.59-6.85L139.59-6.85 139.59-13.05 136.69-13.05Q130.19-13.05 130.19-7.6L130.19-7.6Q130.19-5.25 131.24-4 132.28-2.75 134.24-2.75L134.24-2.75ZM170.58-13.95Q170.58-12.9 170.48-11.6L170.48-11.6 155.18-11.6Q155.38-7 157.03-4.98 158.68-2.95 161.53-2.95L161.53-2.95Q163.33-2.95 164.76-3.5 166.18-4.05 167.73-5.3L167.73-5.3 169.73-2.65Q166.03 0.65 161.33 0.65L161.33 0.65Q156.18 0.65 153.36-2.93 150.53-6.5 150.53-12.95L150.53-12.95Q150.53-19.4 153.23-23.18 155.93-26.95 160.73-26.95L160.73-26.95Q165.48-26.95 168.03-23.58 170.58-20.2 170.58-13.95L170.58-13.95ZM166.23-14.75L166.23-15.3Q166.23-23.55 160.78-23.55L160.78-23.55Q158.28-23.55 156.83-21.48 155.38-19.4 155.18-14.75L155.18-14.75 166.23-14.75ZM185.98-26.95Q188.08-26.95 189.83-26.25 191.58-25.55 193.18-24.1L193.18-24.1 191.18-21.4Q189.98-22.35 188.78-22.83 187.58-23.3 186.18-23.3L186.18-23.3Q183.23-23.3 181.61-20.8 179.98-18.3 179.98-13L179.98-13Q179.98-3.1 186.18-3.1L186.18-3.1Q187.58-3.1 188.73-3.58 189.88-4.05 191.18-5L191.18-5 193.28-2.25Q190.08 0.65 186.03 0.65L186.03 0.65Q180.98 0.65 178.11-2.85 175.23-6.35 175.23-12.95L175.23-12.95Q175.23-17.25 176.56-20.4 177.88-23.55 180.31-25.25 182.73-26.95 185.98-26.95L185.98-26.95ZM198.23-36.95L202.73-37.45 202.73 0 198.23 0 198.23-36.95ZM211.88-26.3L216.58-26.3 207.68-14.6 217.43 0 212.43 0 202.98-14.4 211.88-26.3Z" opacity="1" transform="matrix(1,0,0,1,0,0)" fill="#7a26c1" class="undefined-text-0" data-fill-palette-color="primary" id="text-0"></path></svg></g></svg></g></svg></g></svg></g></svg></g><defs></defs></svg><rect width="395.52" height="70.53270301895624" fill="none" stroke="none" visibility="hidden"></rect></g></svg></g></svg>